<svg version="1.1" id="Layer_1" xmlns="http://www.w3.org/2000/svg" xmlns:xlink="http://www.w3.org/1999/xlink" x="0px" y="0px"
	 width="100%" viewBox="0 0 278 348" enable-background="new 0 0 278 348" xml:space="preserve">
<path fill="#FEFEFE" opacity="1.000000" stroke="none" 
	d="
M279.000000,130.000000 
	C279.000000,203.333328 279.000000,276.166656 279.000000,349.000000 
	C186.333328,349.000000 93.666664,349.000000 1.000000,349.000000 
	C1.000000,233.000000 1.000000,117.000000 1.000000,1.000000 
	C93.666664,1.000000 186.333328,1.000000 279.000000,1.000000 
	C279.000000,43.833332 279.000000,86.666664 279.000000,130.000000 
M256.802979,82.866783 
	C256.630371,82.748909 256.457764,82.631042 256.447083,81.741280 
	C256.626984,81.276329 256.957031,80.812859 256.961609,80.346191 
	C256.985535,77.903534 257.896759,74.468384 256.660187,73.259140 
	C254.982330,71.618317 251.439545,70.829071 249.093018,71.375778 
	C247.931717,71.646347 247.655563,75.723083 246.983398,78.079002 
	C246.873749,78.463249 246.787292,78.854088 246.636490,79.455879 
	C242.203766,72.059891 242.203766,72.059891 236.507507,74.053154 
	C233.825531,67.997307 226.808151,63.984886 228.170181,55.886105 
	C231.852859,56.118813 232.238922,54.022480 231.734863,51.098022 
	C231.550201,50.026711 231.405975,48.508518 231.986069,47.819794 
	C234.827530,44.446285 232.768112,42.915188 230.530838,41.979088 
	C230.530838,40.213474 230.860977,37.885468 230.476746,37.760895 
	C228.149155,37.006248 225.658478,36.754646 224.554260,36.564411 
	C222.241272,34.650204 220.754349,32.581474 218.946503,32.246864 
	C217.909622,32.054958 216.351715,34.678093 215.062805,35.998646 
	C214.502335,35.312267 213.505707,34.091743 211.305771,31.397589 
	C209.902985,35.052597 208.954590,37.523720 207.806686,40.138294 
	C207.806686,40.138294 207.599716,40.270756 206.825943,40.441040 
	C202.153854,39.923496 200.453857,41.238476 201.778488,45.297260 
	C203.014877,49.085716 201.051422,49.894901 198.391861,50.543858 
	C194.854965,51.406887 191.271713,52.079967 187.708359,52.834656 
	C187.841934,52.355881 187.975510,51.877106 188.109085,51.398335 
	C185.070557,50.313301 182.032013,49.228271 180.038040,48.516243 
	C180.908630,46.943748 183.522171,44.379921 183.085144,42.541134 
	C182.296036,39.220966 178.803680,38.017494 175.366486,39.019524 
	C173.902206,39.446396 172.754089,40.899910 171.405411,41.801815 
	C170.537476,42.382225 169.565994,42.807777 169.184540,43.011871 
	C169.184540,39.947361 170.186356,36.546406 168.915680,34.909477 
	C167.516998,33.107628 162.501587,31.505653 161.747314,32.316071 
	C159.745468,34.466904 159.190582,37.964455 158.112564,40.788799 
	C155.864563,39.111343 156.992462,32.660198 151.219650,34.337852 
	C146.960007,35.575756 145.277893,40.716160 146.695587,46.869591 
	C143.090485,46.357101 138.841919,42.307018 136.243805,47.340466 
	C134.481949,50.753788 134.265244,55.023438 138.649292,57.634716 
	C133.957565,59.971859 134.193527,64.532684 139.036316,68.457344 
	C140.118301,69.334206 141.352463,70.211823 142.020813,71.374153 
	C143.809250,74.484398 145.328613,77.749382 147.291718,81.616402 
	C144.429504,86.600204 140.987885,92.592888 137.552872,98.574059 
	C131.168182,95.078293 130.566452,95.323280 129.710129,100.954201 
	C128.450119,99.998085 125.905319,97.779793 125.714455,97.966599 
	C123.794914,99.845329 122.261559,102.118622 120.619560,104.280907 
	C120.775742,104.915161 120.931923,105.549408 121.088112,106.183662 
	C112.534447,103.853271 103.980789,101.522881 96.273392,99.423050 
	C97.683678,95.622292 98.738861,92.778542 99.794044,89.934784 
	C97.117683,88.972832 94.441315,88.010880 92.490273,87.309631 
	C93.581100,85.958229 95.110336,84.063690 96.639580,82.169151 
	C93.845612,80.012596 91.051651,77.856041 88.066284,75.551750 
	C90.391922,71.762871 93.405632,66.852997 96.415489,61.949394 
	C101.749245,65.017342 104.370827,63.330406 105.113106,57.856190 
	C107.476463,58.722469 111.337784,61.227356 112.454910,60.327072 
	C115.009018,58.268742 116.247353,54.559525 117.934875,51.474209 
	C118.091698,51.187489 117.506165,50.569065 117.503036,50.103062 
	C117.498367,49.407703 117.454147,48.455540 117.861603,48.055004 
	C121.236938,44.737015 119.605789,42.967503 116.725449,42.062885 
	C116.725449,40.256786 116.949059,37.678188 116.690865,37.629005 
	C114.104820,37.136402 111.439537,37.059795 109.388023,36.909344 
	C108.405182,35.430130 107.432083,32.568737 106.195114,32.449715 
	C104.568550,32.293201 102.734344,34.294552 100.861588,35.446655 
	C100.596489,35.119137 99.694275,34.004505 97.641815,31.468819 
	C96.188019,34.956963 95.165840,37.409531 93.849579,40.147484 
	C93.849579,40.147484 93.561127,40.438545 92.762840,40.382690 
	C91.260422,40.663925 89.329292,40.466320 88.355576,41.338089 
	C86.877419,42.661488 88.749565,52.713459 89.873520,54.455471 
	C91.362038,56.762508 93.920044,60.134537 93.186081,61.802647 
	C90.636429,67.597282 86.862778,72.853355 83.554672,78.314278 
	C83.132492,73.734955 80.901352,70.995514 76.502502,70.820869 
	C68.894943,70.518829 73.555466,77.196899 71.567459,80.051674 
	C68.659180,78.026505 70.014664,71.052391 63.791012,73.209862 
	C59.553020,74.678993 57.909401,79.905022 59.276592,83.894325 
	C55.950478,84.499062 51.286709,83.985092 49.344154,86.041580 
	C46.861671,88.669662 47.483898,93.223160 49.658440,95.231171 
	C49.134991,98.147964 48.100845,100.352997 48.576553,102.160713 
	C49.170525,104.417816 51.007507,106.347824 52.761597,109.141830 
	C45.726994,112.553818 38.791279,115.917847 31.855562,119.281876 
	C33.605690,115.551109 32.569138,113.086479 29.050934,112.662033 
	C27.782385,112.508995 26.195101,114.997917 24.747236,116.286560 
	C24.089537,115.874695 21.333958,113.722763 21.028242,114.027618 
	C19.197971,115.852730 17.931669,118.243393 16.200249,120.861885 
	C11.297446,120.129257 10.365499,121.102074 11.536866,126.877617 
	C11.670641,127.537209 11.663704,128.272507 11.525599,128.931534 
	C11.042769,131.235550 16.058073,140.916534 18.233818,141.405319 
	C18.927927,141.561249 19.829088,140.795532 20.406649,140.549149 
	C21.025570,141.727097 21.924679,143.796951 22.109024,143.735123 
	C24.702852,142.865402 27.199373,141.705490 29.855520,140.557236 
	C31.381687,145.859482 33.025372,151.570007 34.635006,157.162231 
	C27.653503,162.025696 27.011900,163.517609 28.671032,170.857544 
	C25.070641,170.320847 20.836283,166.299637 18.225136,171.331528 
	C16.443180,174.765518 16.254171,179.026505 20.662758,181.627258 
	C15.922966,183.928452 16.201532,188.431229 20.987057,192.467545 
	C22.332357,193.602234 23.191256,195.325470 24.229700,196.809235 
	C25.710228,198.924698 26.885201,201.389816 28.798626,202.968979 
	C29.264759,203.353683 32.100140,200.867661 34.404045,199.329010 
	C33.297874,205.211639 32.312580,210.765381 31.161243,216.284470 
	C30.954321,217.276382 30.214457,218.285141 29.455067,219.006561 
	C27.973682,220.413849 26.304535,221.623474 24.529617,223.063873 
	C24.292356,222.767303 23.216730,221.422806 21.303049,219.030762 
	C19.280993,222.317886 17.658840,224.954910 15.943595,227.743271 
	C11.905664,226.874146 10.376310,228.316605 11.133698,232.750809 
	C11.341984,233.970230 10.563547,235.546112 11.084796,236.491455 
	C13.285929,240.483566 15.784891,244.313843 18.295273,248.124008 
	C18.390339,248.268280 19.727816,247.593979 19.996918,247.490082 
	C21.032618,248.678040 22.454311,250.853012 22.855173,250.678818 
	C25.187395,249.665375 27.279789,248.100006 29.867891,246.458130 
	C35.302029,249.040237 36.499458,248.837997 38.586231,244.296463 
	C43.087116,247.353653 47.552845,250.386978 52.132473,253.497665 
	C47.064892,257.557159 46.858479,263.296692 50.077484,265.846252 
	C49.431530,268.682404 47.829964,271.647644 48.667309,272.735443 
	C52.476967,277.684357 55.439430,283.150085 58.983246,288.240723 
	C59.201832,288.554749 59.847530,288.571411 60.568481,288.821442 
	C61.561245,287.770630 62.569374,286.703583 64.063904,286.057404 
	C64.229996,286.193024 64.396080,286.328644 64.438179,287.220215 
	C63.931549,291.938995 65.519691,293.474518 69.857826,292.166046 
	C73.661575,291.018738 76.327858,288.758362 76.037170,284.301239 
	C75.882095,281.923431 75.688248,279.548096 75.493530,276.924164 
	C76.273430,277.221161 76.497604,277.238281 76.537003,277.332611 
	C76.787659,277.932648 77.092590,278.532623 77.205994,279.163849 
	C78.203514,284.715759 80.769531,288.435913 87.128464,288.048035 
	C87.803123,288.006866 88.855507,288.518616 89.170135,289.085876 
	C92.339737,294.800079 100.407211,298.437561 96.899773,307.028351 
	C96.788704,307.300385 96.946907,307.682312 97.035889,307.974792 
	C97.035889,307.974792 97.095573,307.942078 96.341499,308.401031 
	C90.514450,307.598450 89.403931,308.833832 90.893288,314.391449 
	C91.048775,314.971680 91.088867,315.673340 90.914680,316.235657 
	C90.182762,318.598389 95.316132,328.934753 97.581856,328.810608 
	C99.227829,328.720398 99.620544,328.293274 100.397705,330.266663 
	C101.267448,332.475128 105.476517,331.458527 106.815308,328.830078 
	C107.263466,327.950134 107.393997,326.908447 107.674561,325.923737 
	C108.446442,326.177887 108.756157,326.279297 109.065498,326.381805 
	C111.137085,327.068451 113.381844,328.574371 115.225502,328.184265 
	C116.712730,327.869598 117.844322,325.346008 118.891563,323.652618 
	C119.679054,322.379242 120.674210,320.812714 120.548042,319.473633 
	C120.143463,315.179504 121.914345,312.239716 126.003670,311.646393 
	C130.089890,311.053528 134.200439,310.628418 138.260239,310.134674 
	C142.392899,316.245422 146.354782,322.103699 150.359909,328.025909 
	C152.154556,326.847168 153.412537,326.020905 153.474014,325.980530 
	C155.267014,328.098297 156.669876,331.189880 158.088806,331.197266 
	C166.978851,331.243591 167.471161,324.812073 167.021240,317.807678 
	C168.011734,319.180664 168.451645,320.362579 168.911758,321.536591 
	C170.702377,326.105591 175.643188,328.368896 179.850571,326.434998 
	C184.659149,324.224792 181.878540,321.055054 180.715057,318.955505 
	C183.123276,318.346069 186.911530,318.116241 187.079453,317.213196 
	C187.668991,314.042786 187.012817,310.640747 186.866089,307.987885 
	C188.160049,305.369385 190.689224,302.579712 190.301437,300.282440 
	C190.003510,298.517517 186.031357,297.372833 184.485718,296.433807 
	C185.154449,294.731934 187.269989,291.997650 186.600479,290.563599 
	C184.443588,285.943634 180.158035,286.275360 175.015762,288.487152 
	C178.816177,281.108704 182.120209,274.659027 185.478607,268.237793 
	C185.757477,267.704620 186.352951,267.073181 186.887955,266.978851 
	C191.979874,266.081146 192.605301,262.533997 192.042313,258.016174 
	C193.443298,261.722992 195.146606,264.900116 199.471359,263.693573 
	C200.668701,263.359558 201.312836,261.042572 202.720123,258.837189 
	C210.457657,260.312836 220.214630,258.840454 227.077759,267.260498 
	C222.340347,269.040802 221.623962,273.379852 226.369171,276.533508 
	C230.955719,279.581787 230.129105,285.188416 233.841858,288.275879 
	C234.169281,288.548157 233.970428,289.915863 233.592468,290.501404 
	C230.188080,295.775665 226.688965,300.988770 222.818069,305.844330 
	C222.674957,305.730621 222.531860,305.616913 222.537033,304.776550 
	C223.836411,301.534149 221.434799,300.129608 219.262665,300.265259 
	C217.759933,300.359131 216.397568,302.700653 215.020447,303.992798 
	C214.448288,303.283112 213.476730,302.077942 211.308121,299.387970 
	C209.887054,303.090546 208.945465,305.543823 207.717407,308.138947 
	C207.717407,308.138947 207.421677,308.260315 206.680435,308.464355 
	C204.216156,307.823242 201.247665,307.600555 201.791183,311.043396 
	C202.448563,315.207336 199.239197,320.623840 205.132355,323.446259 
	C205.553436,323.647919 205.431885,324.808167 205.858704,325.201111 
	C208.278549,327.429016 210.556168,330.020264 213.402786,331.454681 
	C214.314026,331.913879 216.931610,329.352692 218.511673,327.895081 
	C218.983673,327.459656 218.584564,326.079926 218.584564,325.117920 
	C219.227432,325.168335 219.476715,325.115112 219.547104,325.203827 
	C223.725327,330.469055 224.995346,330.374939 227.986786,324.617249 
	C228.156647,324.290314 228.682770,324.010864 229.075989,323.958984 
	C232.613586,323.492554 232.073334,321.171143 231.557724,318.762512 
	C231.378830,317.926758 231.118118,316.626343 231.544632,316.219635 
	C234.916367,313.004486 233.172974,311.167755 230.511307,310.021576 
	C231.916214,306.261505 227.544846,302.482269 231.257263,298.834442 
	C234.216141,295.927063 235.852905,291.674194 237.588913,288.820251 
	C239.822220,290.252411 241.687820,292.480072 243.444565,292.397339 
	C251.164886,292.033569 251.514511,285.902618 251.450775,279.718506 
	C255.998520,287.302887 259.727600,289.503845 264.442078,287.500549 
	C268.879333,285.615082 266.517212,282.477173 265.815704,280.257721 
	C268.082947,279.548431 271.561157,279.194977 271.716187,278.279053 
	C272.261871,275.055634 271.666229,271.639038 271.549194,269.232819 
	C272.830597,266.307434 275.278290,263.361206 274.723724,261.177338 
	C274.251892,259.319336 270.321167,258.339691 268.717163,257.425385 
	C269.514801,255.911148 270.587952,253.873962 271.661072,251.836761 
	C268.996460,250.579300 266.411407,248.673798 263.634277,248.332779 
	C262.206635,248.157471 260.397614,250.728683 258.834778,252.140488 
	C257.799683,253.075516 256.895660,254.155579 255.932983,255.170715 
	C256.110687,252.851410 257.163849,251.235443 257.387421,249.511856 
	C257.637177,247.586456 257.870209,244.656265 256.795349,243.783997 
	C254.931305,242.271286 251.997772,241.335266 249.630630,241.537460 
	C248.642014,241.621887 247.866745,245.207855 247.171371,247.261642 
	C246.863419,248.171173 246.994614,249.229385 247.001434,249.130249 
	C244.731323,247.252838 242.546432,244.654343 239.772659,243.588684 
	C238.823898,243.224197 235.754639,246.417969 234.827835,248.506760 
	C233.892609,250.614502 234.413559,253.368362 234.298325,255.801224 
	C226.314148,253.245850 225.553864,253.499466 222.893799,259.829742 
	C218.050522,258.828766 213.189102,257.766907 208.302856,256.835144 
	C205.281799,256.259064 203.306366,253.176758 204.789459,251.789795 
	C209.655106,247.239487 202.078598,244.439606 203.911926,240.679108 
	C201.460388,240.327209 199.008865,239.975311 196.662186,239.638458 
	C195.714401,238.474136 194.641296,236.110580 192.901749,235.416016 
	C191.879425,235.007797 189.797821,237.252457 188.271973,238.251938 
	C187.513702,237.825745 185.242828,236.233047 185.025131,236.476501 
	C183.079559,238.652069 181.495926,241.151321 179.805771,243.555313 
	C177.896454,243.724182 175.490799,244.509460 175.155151,245.823456 
	C173.495590,252.320740 178.258987,262.241272 184.189331,265.281372 
	C180.946945,271.530579 177.706451,277.776093 174.992432,283.006927 
	C171.023468,281.979095 167.117554,279.680176 164.842331,280.773834 
	C162.920776,281.697449 162.890060,286.554901 162.055496,289.552643 
	C159.472473,287.137146 160.195221,279.026093 152.536255,283.401611 
	C148.957642,277.540131 145.216766,272.015198 142.170441,266.130676 
	C140.929321,263.733246 140.177277,260.419128 144.229172,258.655090 
	C145.138428,258.259216 145.318527,255.928955 145.604004,254.444916 
	C145.818741,253.328568 145.177933,251.698792 145.757797,251.060364 
	C148.664093,247.860489 147.181595,246.163666 144.794571,245.264236 
	C144.568237,243.306229 144.771454,240.900909 144.179260,240.685837 
	C142.000198,239.894501 139.557419,239.829346 138.618439,239.693771 
	C136.077103,237.741837 134.298447,236.375702 132.519775,235.009567 
	C131.370407,236.582611 130.221024,238.155640 129.184052,239.574860 
	C128.508438,238.650070 127.498314,237.267410 125.559196,234.613144 
	C123.648659,238.231735 122.299805,240.786484 120.850479,243.531525 
	C115.764809,242.661041 114.724960,243.746033 115.868095,249.460403 
	C116.023560,250.237549 115.830009,251.128357 115.630173,251.924377 
	C115.068825,254.160370 120.495636,263.623962 122.781288,264.090973 
	C123.286354,264.194183 123.940483,263.567841 123.990112,263.543213 
	C125.296387,264.692047 127.327042,266.844299 127.586624,266.648529 
	C129.740540,265.023865 131.567261,262.965454 134.386826,260.143524 
	C138.452576,266.265076 142.980133,272.989014 147.401413,279.782104 
	C149.311066,282.716248 152.072266,285.468750 149.303726,289.548431 
	C148.763916,290.343903 149.919724,292.290039 149.874557,294.171875 
	C149.749939,294.339661 149.625305,294.507416 148.765823,294.467957 
	C140.683640,292.184265 137.300323,294.836853 139.231949,302.120819 
	C139.647064,303.686127 140.995560,305.003967 142.250946,306.960876 
	C134.125458,308.029755 126.442642,309.040375 119.225166,309.989807 
	C119.326752,308.358673 120.038078,306.477631 119.395233,305.655487 
	C116.104233,301.446625 113.291153,305.782135 111.287781,306.565948 
	C111.008049,304.547882 111.267738,301.519684 110.397469,301.149750 
	C108.508575,300.346863 106.042320,300.902191 103.812134,300.902191 
	C103.721931,301.342224 103.631729,301.782227 103.541527,302.222260 
	C95.405128,296.199036 91.600449,287.447815 89.271324,278.604553 
	C91.272858,278.604553 93.881271,278.604553 96.489677,278.604553 
	C96.438217,275.223328 96.386765,271.842133 96.339844,268.759186 
	C97.448677,266.429749 99.960083,263.580536 99.530350,261.280945 
	C99.192757,259.474335 95.221985,258.346680 93.722298,257.437195 
	C94.426201,255.715500 96.611267,252.766571 95.912697,251.691635 
	C91.301201,244.595505 86.490211,248.485474 82.036232,252.864685 
	C82.430283,240.849152 83.478638,229.743683 91.509758,221.959167 
	C94.487137,222.551620 97.016373,223.246399 99.574677,223.378525 
	C100.009422,223.400986 100.568871,221.008820 101.280937,219.197403 
	C104.061218,219.077087 105.632530,217.368988 104.108749,213.483231 
	C103.840630,212.799500 104.018517,211.528870 104.504471,211.028778 
	C107.496254,207.949997 106.175484,206.167816 103.572624,205.234222 
	C103.401611,203.364059 103.787880,201.557373 103.057350,200.640686 
	C99.851616,196.617966 97.224525,201.429337 95.394691,201.703934 
	C94.921745,199.529007 95.081841,196.908188 94.003235,196.215118 
	C92.840263,195.467819 90.509575,196.481781 88.705902,196.820999 
	C88.150200,196.925522 87.405571,197.711884 87.164078,197.552963 
	C81.747009,193.987793 81.796585,199.248886 79.828796,202.194458 
	C79.720238,202.331055 79.611687,202.467651 78.871429,202.323593 
	C74.513008,199.632217 70.154594,196.940826 66.888809,194.924164 
	C66.191490,190.313278 65.656799,186.777802 65.251038,184.094757 
	C66.549828,181.091522 68.961769,178.095734 68.522964,175.601471 
	C68.240753,173.997360 63.766796,173.130707 62.054680,172.340866 
	C62.851971,170.950287 65.511154,168.414658 65.092400,166.582520 
	C64.339745,163.289398 60.899651,161.969604 57.433224,162.974045 
	C55.966896,163.398926 54.796505,164.806122 53.453960,165.710999 
	C52.573215,166.304581 51.625065,166.798172 51.354504,166.956863 
	C51.183079,163.832428 51.931976,160.505249 50.617886,158.603851 
	C49.449799,156.913696 44.471771,155.496506 43.832302,156.240982 
	C41.865829,158.530380 41.173367,161.914078 39.873314,165.152664 
	C37.530441,157.507980 35.108311,149.604691 32.526058,141.178925 
	C37.277340,141.462509 39.119701,140.037003 36.967663,136.024719 
	C36.967663,136.024719 36.913574,136.060577 37.665123,135.759995 
	C41.411297,137.014435 41.520321,134.679916 41.296371,132.057266 
	C41.198940,130.916260 40.500912,129.122955 40.970970,128.747849 
	C44.906727,125.607079 42.615181,123.618172 38.419682,121.084305 
	C44.195522,117.047867 49.209614,113.543777 54.088352,110.134285 
	C55.525719,112.627892 56.310318,115.304031 58.096992,116.649017 
	C59.393860,117.625290 62.017052,116.839676 64.188148,116.839676 
	C63.801132,119.107727 63.482597,122.003326 67.859871,122.019135 
	C73.007423,122.037720 75.761482,118.456703 76.340157,109.657631 
	C78.696999,117.681702 80.685417,124.604996 82.774483,131.497787 
	C83.788666,134.844040 85.003777,138.027603 81.423973,140.818665 
	C80.670769,141.405914 80.899109,143.252106 80.222252,144.828613 
	C80.086166,144.951004 79.950073,145.073410 79.010628,145.194077 
	C77.442863,145.892609 74.454605,147.019348 74.517036,147.226456 
	C75.770233,151.383713 71.979454,156.685593 77.246552,159.924225 
	C77.730782,160.221970 78.232872,160.945404 78.246262,161.483124 
	C78.367691,166.359528 84.014503,165.265182 85.876778,168.350677 
	C85.966187,168.498810 89.211121,167.017410 90.705566,165.914185 
	C91.350212,165.438293 91.278191,163.991562 91.570007,162.834061 
	C97.028030,166.605072 97.023956,166.602097 100.973320,161.182312 
	C101.120399,160.980484 101.492615,160.894348 101.775414,160.847107 
	C105.154785,160.282486 104.891586,158.105072 104.203583,155.614777 
	C103.981216,154.809875 103.791618,153.466568 104.219040,153.093338 
	C108.500603,149.354645 105.020531,148.154251 102.959541,147.201157 
	C103.128456,145.384048 103.650581,142.958374 103.317871,142.834824 
	C100.940903,141.952194 98.389725,141.538742 95.959900,140.990967 
	C95.095634,139.914413 94.190926,137.711639 92.783035,137.320618 
	C91.212181,136.884369 89.184212,138.094055 87.308998,138.599792 
	C86.542534,135.941055 85.653862,133.266296 85.010239,130.533813 
	C83.943878,126.006592 83.035271,121.442223 82.029213,116.957130 
	C82.029213,116.957130 81.991539,117.017044 82.729507,116.997871 
	C85.610207,116.396080 88.490898,115.794289 91.371597,115.192505 
	C90.659492,113.002495 89.947388,110.812485 89.790977,108.173759 
	C89.962921,108.009071 90.134857,107.844391 90.925140,107.922462 
	C95.445175,110.648590 96.581734,109.866920 98.072701,102.927544 
	C98.072701,102.927544 98.346390,102.659813 99.103516,102.688034 
	C103.658859,104.186569 108.217751,105.674408 112.768272,107.187424 
	C115.779778,108.188736 116.486000,110.314323 115.700180,113.206596 
	C115.000938,115.780190 120.473274,124.847252 123.090469,125.455910 
	C123.679794,125.592964 124.854309,125.383347 124.873016,125.489510 
	C125.448975,128.758133 127.811348,128.753616 129.648773,127.404526 
	C131.211121,126.257393 131.960358,124.002846 132.562714,123.044365 
	C135.436722,123.703857 138.067596,124.483055 140.742218,124.686127 
	C141.055801,124.709946 141.610367,121.560287 142.027206,119.951546 
	C142.027206,119.951546 141.988388,120.015060 142.780762,120.115326 
	C147.903900,119.145874 145.618988,116.225441 144.787827,114.103004 
	C145.662201,112.111938 147.101883,110.336632 146.888641,108.789070 
	C146.747223,107.762672 144.239410,107.062325 142.856415,106.254303 
	C146.493088,103.242699 146.168152,102.391396 139.860870,99.587868 
	C143.389618,93.420723 146.905228,87.276527 149.688049,82.413040 
	C153.354340,82.413040 156.232040,83.153343 158.476471,82.275177 
	C165.397293,79.567307 162.706177,73.219269 162.683594,67.419388 
	C164.759628,71.188873 166.028580,74.582237 168.201462,77.235260 
	C174.881790,85.391808 182.279709,93.091896 181.575958,104.945274 
	C174.839508,104.347969 174.526428,104.703430 175.339096,111.012253 
	C175.431168,111.727013 175.284317,112.486588 175.165283,113.211761 
	C174.864319,115.045570 179.998001,125.125702 181.715347,125.466736 
	C182.627853,125.647942 183.736557,124.841164 183.443634,124.944763 
	C185.193146,126.310478 186.400864,128.020187 187.403244,127.907257 
	C192.637711,127.317513 192.295959,123.237724 192.165390,119.024307 
	C193.127228,123.406853 195.208710,126.229355 199.718430,124.877350 
	C200.789963,124.556099 201.226944,122.118286 202.223053,120.117165 
	C204.969238,119.805710 205.540436,119.161484 205.057571,115.865517 
	C204.907532,114.841339 204.349991,113.606201 204.722427,112.819641 
	C207.324799,107.323578 207.387268,107.353157 201.829605,106.608513 
	C202.861160,105.762009 203.935806,104.880150 204.996689,104.009575 
	C201.679718,99.569489 200.514816,99.494865 195.894852,102.889488 
	C195.894852,102.889488 195.650543,102.633362 195.744263,101.848289 
	C196.814148,99.102463 195.945084,96.817581 193.074219,96.804283 
	C191.425659,96.796638 189.767685,98.826157 187.368469,100.440063 
	C183.114014,93.955505 178.453125,86.851479 173.518311,79.329926 
	C179.156540,78.022041 180.208374,74.919212 177.993210,71.229271 
	C180.140778,70.466393 183.351303,70.054764 183.501099,69.141212 
	C184.031036,65.909798 183.514053,62.506695 183.337952,57.613232 
	C187.235474,56.405819 192.459198,54.667553 197.754654,53.185635 
	C201.877686,52.031811 204.197205,53.734932 206.181183,57.696838 
	C207.461685,60.253948 210.747849,62.087986 213.528854,63.430740 
	C214.302780,63.804413 216.629715,61.412758 217.944046,60.008778 
	C218.524231,59.389008 218.355743,58.068367 218.582550,56.741852 
	C220.190369,58.211143 221.518646,59.161896 222.516449,60.382755 
	C226.644821,65.434013 230.693848,70.550949 234.698929,75.700592 
	C235.017868,76.110680 234.827393,76.957504 234.790543,77.596573 
	C234.650101,80.033127 234.475555,82.467712 234.356750,84.255966 
	C231.320038,84.596268 226.116531,83.841888 225.029434,85.613472 
	C223.382568,88.297295 224.599152,92.738220 224.599152,97.445045 
	C222.382187,99.407074 223.049301,103.488014 227.074646,107.106613 
	C228.618301,108.494278 229.936874,110.432335 230.655807,112.378944 
	C232.511841,117.404366 234.106995,118.406143 237.906265,117.216553 
	C239.651352,119.084518 240.921631,121.682907 242.360703,121.780029 
	C250.589340,122.335342 251.530777,116.334656 251.628021,109.677605 
	C253.113403,111.476044 253.789398,113.105362 254.792587,114.499222 
	C256.928162,117.466415 263.103455,118.582779 265.609100,116.331223 
	C268.926819,113.349876 266.307770,111.034050 264.416534,108.710022 
	C264.347015,108.624565 264.605621,108.272057 264.334717,108.856544 
	C267.125732,108.568405 271.291382,108.753334 271.462280,108.014305 
	C272.204010,104.807465 271.780365,101.331085 271.780365,98.794853 
	C272.996429,95.692940 275.569305,92.231239 274.699646,90.546120 
	C273.663696,88.538780 269.674591,88.055489 267.236694,87.026604 
	C267.507172,86.875977 268.465210,86.348495 269.417603,85.810982 
	C272.960938,83.811195 272.611328,81.470543 269.838898,79.158203 
	C266.684662,76.527390 263.448242,76.586349 260.466797,79.485237 
	C259.288666,80.630760 258.333893,82.006027 256.802979,82.866783 
z"/>
<path fill="#077084" opacity="1.000000" stroke="none" 
	d="
M223.217651,306.219849 
	C226.688965,300.988770 230.188080,295.775665 233.592468,290.501404 
	C233.970428,289.915863 234.169281,288.548157 233.841858,288.275879 
	C230.129105,285.188416 230.955719,279.581787 226.369171,276.533508 
	C221.623962,273.379852 222.340347,269.040802 227.077759,267.260498 
	C220.214630,258.840454 210.457657,260.312836 202.720123,258.837189 
	C201.312836,261.042572 200.668701,263.359558 199.471359,263.693573 
	C195.146606,264.900116 193.443298,261.722992 192.042313,258.016174 
	C192.605301,262.533997 191.979874,266.081146 186.887955,266.978851 
	C186.352951,267.073181 185.757477,267.704620 185.478607,268.237793 
	C182.120209,274.659027 178.816177,281.108704 175.015762,288.487152 
	C180.158035,286.275360 184.443588,285.943634 186.600479,290.563599 
	C187.269989,291.997650 185.154449,294.731934 184.485718,296.433807 
	C186.031357,297.372833 190.003510,298.517517 190.301437,300.282440 
	C190.689224,302.579712 188.160049,305.369385 186.866089,307.987885 
	C187.012817,310.640747 187.668991,314.042786 187.079453,317.213196 
	C186.911530,318.116241 183.123276,318.346069 180.715057,318.955505 
	C181.878540,321.055054 184.659149,324.224792 179.850571,326.434998 
	C175.643188,328.368896 170.702377,326.105591 168.911758,321.536591 
	C168.451645,320.362579 168.011734,319.180664 167.021240,317.807678 
	C167.471161,324.812073 166.978851,331.243591 158.088806,331.197266 
	C156.669876,331.189880 155.267014,328.098297 153.474014,325.980530 
	C153.412537,326.020905 152.154556,326.847168 150.359909,328.025909 
	C146.354782,322.103699 142.392899,316.245422 138.260239,310.134674 
	C134.200439,310.628418 130.089890,311.053528 126.003670,311.646393 
	C121.914345,312.239716 120.143463,315.179504 120.548042,319.473633 
	C120.674210,320.812714 119.679054,322.379242 118.891563,323.652618 
	C117.844322,325.346008 116.712730,327.869598 115.225502,328.184265 
	C113.381844,328.574371 111.137085,327.068451 109.065498,326.381805 
	C108.756157,326.279297 108.446442,326.177887 107.674561,325.923737 
	C107.393997,326.908447 107.263466,327.950134 106.815308,328.830078 
	C105.476517,331.458527 101.267448,332.475128 100.397705,330.266663 
	C99.620544,328.293274 99.227829,328.720398 97.581856,328.810608 
	C95.316132,328.934753 90.182762,318.598389 90.914680,316.235657 
	C91.088867,315.673340 91.048775,314.971680 90.893288,314.391449 
	C89.403931,308.833832 90.514450,307.598450 96.549774,308.371155 
	C97.019707,308.385742 97.281357,308.430206 97.543007,308.474670 
	C97.355202,308.320801 97.167389,308.166901 96.979584,308.013031 
	C96.946907,307.682312 96.788704,307.300385 96.899773,307.028351 
	C100.407211,298.437561 92.339737,294.800079 89.170135,289.085876 
	C88.855507,288.518616 87.803123,288.006866 87.128464,288.048035 
	C80.769531,288.435913 78.203514,284.715759 77.205994,279.163849 
	C77.092590,278.532623 76.787659,277.932648 76.537003,277.332611 
	C76.497604,277.238281 76.273430,277.221161 75.493530,276.924164 
	C75.688248,279.548096 75.882095,281.923431 76.037170,284.301239 
	C76.327858,288.758362 73.661575,291.018738 69.857826,292.166046 
	C65.519691,293.474518 63.931549,291.938995 64.657135,286.583679 
	C64.876099,285.385895 64.876099,284.824707 64.876099,283.338348 
	C64.133453,284.652649 63.855480,285.144562 63.577507,285.636505 
	C62.569374,286.703583 61.561245,287.770630 60.568481,288.821442 
	C59.847530,288.571411 59.201832,288.554749 58.983246,288.240723 
	C55.439430,283.150085 52.476967,277.684357 48.667309,272.735443 
	C47.829964,271.647644 49.431530,268.682404 50.077484,265.846252 
	C46.858479,263.296692 47.064892,257.557159 52.132473,253.497665 
	C47.552845,250.386978 43.087116,247.353653 38.586231,244.296463 
	C36.499458,248.837997 35.302029,249.040237 29.867891,246.458130 
	C27.279789,248.100006 25.187395,249.665375 22.855173,250.678818 
	C22.454311,250.853012 21.032618,248.678040 19.996918,247.490082 
	C19.727816,247.593979 18.390339,248.268280 18.295273,248.124008 
	C15.784891,244.313843 13.285929,240.483566 11.084796,236.491455 
	C10.563547,235.546112 11.341984,233.970230 11.133698,232.750809 
	C10.376310,228.316605 11.905664,226.874146 15.943595,227.743271 
	C17.658840,224.954910 19.280993,222.317886 21.303049,219.030762 
	C23.216730,221.422806 24.292356,222.767303 24.529617,223.063873 
	C26.304535,221.623474 27.973682,220.413849 29.455067,219.006561 
	C30.214457,218.285141 30.954321,217.276382 31.161243,216.284470 
	C32.312580,210.765381 33.297874,205.211639 34.404045,199.329010 
	C32.100140,200.867661 29.264759,203.353683 28.798626,202.968979 
	C26.885201,201.389816 25.710228,198.924698 24.229700,196.809235 
	C23.191256,195.325470 22.332357,193.602234 20.987057,192.467545 
	C16.201532,188.431229 15.922966,183.928452 20.662758,181.627258 
	C16.254171,179.026505 16.443180,174.765518 18.225136,171.331528 
	C20.836283,166.299637 25.070641,170.320847 28.671032,170.857544 
	C27.011900,163.517609 27.653503,162.025696 34.635006,157.162231 
	C33.025372,151.570007 31.381687,145.859482 29.855520,140.557236 
	C27.199373,141.705490 24.702852,142.865402 22.109024,143.735123 
	C21.924679,143.796951 21.025570,141.727097 20.406649,140.549149 
	C19.829088,140.795532 18.927927,141.561249 18.233818,141.405319 
	C16.058073,140.916534 11.042769,131.235550 11.525599,128.931534 
	C11.663704,128.272507 11.670641,127.537209 11.536866,126.877617 
	C10.365499,121.102074 11.297446,120.129257 16.200249,120.861885 
	C17.931669,118.243393 19.197971,115.852730 21.028242,114.027618 
	C21.333958,113.722763 24.089537,115.874695 24.747236,116.286560 
	C26.195101,114.997917 27.782385,112.508995 29.050934,112.662033 
	C32.569138,113.086479 33.605690,115.551109 31.855562,119.281876 
	C38.791279,115.917847 45.726994,112.553818 52.761597,109.141830 
	C51.007507,106.347824 49.170525,104.417816 48.576553,102.160713 
	C48.100845,100.352997 49.134991,98.147964 49.658440,95.231171 
	C47.483898,93.223160 46.861671,88.669662 49.344154,86.041580 
	C51.286709,83.985092 55.950478,84.499062 59.276592,83.894325 
	C57.909401,79.905022 59.553020,74.678993 63.791012,73.209862 
	C70.014664,71.052391 68.659180,78.026505 71.567459,80.051674 
	C73.555466,77.196899 68.894943,70.518829 76.502502,70.820869 
	C80.901352,70.995514 83.132492,73.734955 83.554672,78.314278 
	C86.862778,72.853355 90.636429,67.597282 93.186081,61.802647 
	C93.920044,60.134537 91.362038,56.762508 89.873520,54.455471 
	C88.749565,52.713459 86.877419,42.661488 88.355576,41.338089 
	C89.329292,40.466320 91.260422,40.663925 93.361336,40.593056 
	C94.213280,40.766506 94.466736,40.729591 94.720184,40.692680 
	C94.528008,40.415821 94.335831,40.138958 94.143654,39.862095 
	C95.165840,37.409531 96.188019,34.956963 97.641815,31.468819 
	C99.694275,34.004505 100.596489,35.119137 100.861588,35.446655 
	C102.734344,34.294552 104.568550,32.293201 106.195114,32.449715 
	C107.432083,32.568737 108.405182,35.430130 109.388023,36.909344 
	C111.439537,37.059795 114.104820,37.136402 116.690865,37.629005 
	C116.949059,37.678188 116.725449,40.256786 116.725449,42.062885 
	C119.605789,42.967503 121.236938,44.737015 117.861603,48.055004 
	C117.454147,48.455540 117.498367,49.407703 117.503036,50.103062 
	C117.506165,50.569065 118.091698,51.187489 117.934875,51.474209 
	C116.247353,54.559525 115.009018,58.268742 112.454910,60.327072 
	C111.337784,61.227356 107.476463,58.722469 105.113106,57.856190 
	C104.370827,63.330406 101.749245,65.017342 96.415489,61.949394 
	C93.405632,66.852997 90.391922,71.762871 88.066284,75.551750 
	C91.051651,77.856041 93.845612,80.012596 96.639580,82.169151 
	C95.110336,84.063690 93.581100,85.958229 92.490273,87.309631 
	C94.441315,88.010880 97.117683,88.972832 99.794044,89.934784 
	C98.738861,92.778542 97.683678,95.622292 96.273392,99.423050 
	C103.980789,101.522881 112.534447,103.853271 121.088112,106.183662 
	C120.931923,105.549408 120.775742,104.915161 120.619560,104.280907 
	C122.261559,102.118622 123.794914,99.845329 125.714455,97.966599 
	C125.905319,97.779793 128.450119,99.998085 129.710129,100.954201 
	C130.566452,95.323280 131.168182,95.078293 137.552872,98.574059 
	C140.987885,92.592888 144.429504,86.600204 147.291718,81.616402 
	C145.328613,77.749382 143.809250,74.484398 142.020813,71.374153 
	C141.352463,70.211823 140.118301,69.334206 139.036316,68.457344 
	C134.193527,64.532684 133.957565,59.971859 138.649292,57.634716 
	C134.265244,55.023438 134.481949,50.753788 136.243805,47.340466 
	C138.841919,42.307018 143.090485,46.357101 146.695587,46.869591 
	C145.277893,40.716160 146.960007,35.575756 151.219650,34.337852 
	C156.992462,32.660198 155.864563,39.111343 158.112564,40.788799 
	C159.190582,37.964455 159.745468,34.466904 161.747314,32.316071 
	C162.501587,31.505653 167.516998,33.107628 168.915680,34.909477 
	C170.186356,36.546406 169.184540,39.947361 169.184540,43.011871 
	C169.565994,42.807777 170.537476,42.382225 171.405411,41.801815 
	C172.754089,40.899910 173.902206,39.446396 175.366486,39.019524 
	C178.803680,38.017494 182.296036,39.220966 183.085144,42.541134 
	C183.522171,44.379921 180.908630,46.943748 180.038040,48.516243 
	C182.032013,49.228271 185.070557,50.313301 188.109085,51.398335 
	C187.975510,51.877106 187.841934,52.355881 187.708359,52.834656 
	C191.271713,52.079967 194.854965,51.406887 198.391861,50.543858 
	C201.051422,49.894901 203.014877,49.085716 201.778488,45.297260 
	C200.453857,41.238476 202.153854,39.923496 207.312820,40.577507 
	C208.044968,40.708122 208.290253,40.702267 208.535522,40.696419 
	C208.359070,40.462563 208.182617,40.228703 208.006180,39.994843 
	C208.954590,37.523720 209.902985,35.052597 211.305771,31.397589 
	C213.505707,34.091743 214.502335,35.312267 215.062805,35.998646 
	C216.351715,34.678093 217.909622,32.054958 218.946503,32.246864 
	C220.754349,32.581474 222.241272,34.650204 224.554260,36.564411 
	C225.658478,36.754646 228.149155,37.006248 230.476746,37.760895 
	C230.860977,37.885468 230.530838,40.213474 230.530838,41.979088 
	C232.768112,42.915188 234.827530,44.446285 231.986069,47.819794 
	C231.405975,48.508518 231.550201,50.026711 231.734863,51.098022 
	C232.238922,54.022480 231.852859,56.118813 228.170181,55.886105 
	C226.808151,63.984886 233.825531,67.997307 236.507507,74.053154 
	C242.203766,72.059891 242.203766,72.059891 246.636490,79.455879 
	C246.787292,78.854088 246.873749,78.463249 246.983398,78.079002 
	C247.655563,75.723083 247.931717,71.646347 249.093018,71.375778 
	C251.439545,70.829071 254.982330,71.618317 256.660187,73.259140 
	C257.896759,74.468384 256.985535,77.903534 256.961609,80.346191 
	C256.957031,80.812859 256.626984,81.276329 256.236023,82.384811 
	C256.105682,83.298286 256.186371,83.568222 256.267090,83.838150 
	C256.603882,83.650993 256.940643,83.463837 257.277435,83.276688 
	C258.333893,82.006027 259.288666,80.630760 260.466797,79.485237 
	C263.448242,76.586349 266.684662,76.527390 269.838898,79.158203 
	C272.611328,81.470543 272.960938,83.811195 269.417603,85.810982 
	C268.465210,86.348495 267.507172,86.875977 267.236694,87.026604 
	C269.674591,88.055489 273.663696,88.538780 274.699646,90.546120 
	C275.569305,92.231239 272.996429,95.692940 271.780365,98.794853 
	C271.780365,101.331085 272.204010,104.807465 271.462280,108.014305 
	C271.291382,108.753334 267.125732,108.568405 264.334717,108.856544 
	C264.605621,108.272057 264.347015,108.624565 264.416534,108.710022 
	C266.307770,111.034050 268.926819,113.349876 265.609100,116.331223 
	C263.103455,118.582779 256.928162,117.466415 254.792587,114.499222 
	C253.789398,113.105362 253.113403,111.476044 251.628021,109.677605 
	C251.530777,116.334656 250.589340,122.335342 242.360703,121.780029 
	C240.921631,121.682907 239.651352,119.084518 237.906265,117.216553 
	C234.106995,118.406143 232.511841,117.404366 230.655807,112.378944 
	C229.936874,110.432335 228.618301,108.494278 227.074646,107.106613 
	C223.049301,103.488014 222.382187,99.407074 224.599152,97.445045 
	C224.599152,92.738220 223.382568,88.297295 225.029434,85.613472 
	C226.116531,83.841888 231.320038,84.596268 234.356750,84.255966 
	C234.475555,82.467712 234.650101,80.033127 234.790543,77.596573 
	C234.827393,76.957504 235.017868,76.110680 234.698929,75.700592 
	C230.693848,70.550949 226.644821,65.434013 222.516449,60.382755 
	C221.518646,59.161896 220.190369,58.211143 218.582550,56.741852 
	C218.355743,58.068367 218.524231,59.389008 217.944046,60.008778 
	C216.629715,61.412758 214.302780,63.804413 213.528854,63.430740 
	C210.747849,62.087986 207.461685,60.253948 206.181183,57.696838 
	C204.197205,53.734932 201.877686,52.031811 197.754654,53.185635 
	C192.459198,54.667553 187.235474,56.405819 183.337952,57.613232 
	C183.514053,62.506695 184.031036,65.909798 183.501099,69.141212 
	C183.351303,70.054764 180.140778,70.466393 177.993210,71.229271 
	C180.208374,74.919212 179.156540,78.022041 173.518311,79.329926 
	C178.453125,86.851479 183.114014,93.955505 187.368469,100.440063 
	C189.767685,98.826157 191.425659,96.796638 193.074219,96.804283 
	C195.945084,96.817581 196.814148,99.102463 195.491791,102.414261 
	C195.275772,103.234299 195.312225,103.488365 195.348679,103.742416 
	C195.612656,103.543015 195.876633,103.343613 196.140610,103.144211 
	C200.514816,99.494865 201.679718,99.569489 204.996689,104.009575 
	C203.935806,104.880150 202.861160,105.762009 201.829605,106.608513 
	C207.387268,107.353157 207.324799,107.323578 204.722427,112.819641 
	C204.349991,113.606201 204.907532,114.841339 205.057571,115.865517 
	C205.540436,119.161484 204.969238,119.805710 202.223053,120.117165 
	C201.226944,122.118286 200.789963,124.556099 199.718430,124.877350 
	C195.208710,126.229355 193.127228,123.406853 192.165390,119.024307 
	C192.295959,123.237724 192.637711,127.317513 187.403244,127.907257 
	C186.400864,128.020187 185.193146,126.310478 183.443634,124.944763 
	C183.736557,124.841164 182.627853,125.647942 181.715347,125.466736 
	C179.998001,125.125702 174.864319,115.045570 175.165283,113.211761 
	C175.284317,112.486588 175.431168,111.727013 175.339096,111.012253 
	C174.526428,104.703430 174.839508,104.347969 181.575958,104.945274 
	C182.279709,93.091896 174.881790,85.391808 168.201462,77.235260 
	C166.028580,74.582237 164.759628,71.188873 162.683594,67.419388 
	C162.706177,73.219269 165.397293,79.567307 158.476471,82.275177 
	C156.232040,83.153343 153.354340,82.413040 149.688049,82.413040 
	C146.905228,87.276527 143.389618,93.420723 139.860870,99.587868 
	C146.168152,102.391396 146.493088,103.242699 142.856415,106.254303 
	C144.239410,107.062325 146.747223,107.762672 146.888641,108.789070 
	C147.101883,110.336632 145.662201,112.111938 144.787827,114.103004 
	C145.618988,116.225441 147.903900,119.145874 142.281799,119.786469 
	C141.404678,119.461494 141.026550,119.465370 140.648407,119.469254 
	C140.774689,119.710869 140.892487,120.149368 141.028915,120.155243 
	C141.365799,120.169739 141.711212,119.985901 142.053223,119.881790 
	C141.610367,121.560287 141.055801,124.709946 140.742218,124.686127 
	C138.067596,124.483055 135.436722,123.703857 132.562714,123.044365 
	C131.960358,124.002846 131.211121,126.257393 129.648773,127.404526 
	C127.811348,128.753616 125.448975,128.758133 124.873016,125.489510 
	C124.854309,125.383347 123.679794,125.592964 123.090469,125.455910 
	C120.473274,124.847252 115.000938,115.780190 115.700180,113.206596 
	C116.486000,110.314323 115.779778,108.188736 112.768272,107.187424 
	C108.217751,105.674408 103.658859,104.186569 98.581818,102.520859 
	C97.973030,102.634148 97.885925,102.914619 97.798828,103.195091 
	C96.581734,109.866920 95.445175,110.648590 90.448616,107.569077 
	C89.441971,107.008904 88.911850,106.802124 88.147034,106.389832 
	C87.349274,106.184311 86.786194,106.184311 86.223122,106.184311 
	C86.207161,106.363197 86.191200,106.542084 86.175247,106.720970 
	C86.748322,106.851982 87.321404,106.982994 87.947220,107.374390 
	C88.411736,107.964012 88.823509,108.293243 89.235275,108.622475 
	C89.947388,110.812485 90.659492,113.002495 91.371597,115.192505 
	C88.490898,115.794289 85.610207,116.396080 82.254761,116.819794 
	C81.641113,116.769485 81.502213,116.897247 81.363319,117.025009 
	C81.595612,116.981171 81.827911,116.937340 82.060204,116.893501 
	C83.035271,121.442223 83.943878,126.006592 85.010239,130.533813 
	C85.653862,133.266296 86.542534,135.941055 87.308998,138.599792 
	C89.184212,138.094055 91.212181,136.884369 92.783035,137.320618 
	C94.190926,137.711639 95.095634,139.914413 95.959900,140.990967 
	C98.389725,141.538742 100.940903,141.952194 103.317871,142.834824 
	C103.650581,142.958374 103.128456,145.384048 102.959541,147.201157 
	C105.020531,148.154251 108.500603,149.354645 104.219040,153.093338 
	C103.791618,153.466568 103.981216,154.809875 104.203583,155.614777 
	C104.891586,158.105072 105.154785,160.282486 101.775414,160.847107 
	C101.492615,160.894348 101.120399,160.980484 100.973320,161.182312 
	C97.023956,166.602097 97.028030,166.605072 91.570007,162.834061 
	C91.278191,163.991562 91.350212,165.438293 90.705566,165.914185 
	C89.211121,167.017410 85.966187,168.498810 85.876778,168.350677 
	C84.014503,165.265182 78.367691,166.359528 78.246262,161.483124 
	C78.232872,160.945404 77.730782,160.221970 77.246552,159.924225 
	C71.979454,156.685593 75.770233,151.383713 74.517036,147.226456 
	C74.454605,147.019348 77.442863,145.892609 79.525192,145.393707 
	C80.251564,145.234970 80.463371,144.876572 80.675171,144.518188 
	C80.899109,143.252106 80.670769,141.405914 81.423973,140.818665 
	C85.003777,138.027603 83.788666,134.844040 82.774483,131.497787 
	C80.685417,124.604996 78.696999,117.681702 76.340157,109.657631 
	C75.761482,118.456703 73.007423,122.037720 67.859871,122.019135 
	C63.482597,122.003326 63.801132,119.107727 64.188148,116.839676 
	C62.017052,116.839676 59.393860,117.625290 58.096992,116.649017 
	C56.310318,115.304031 55.525719,112.627892 54.088352,110.134285 
	C49.209614,113.543777 44.195522,117.047867 38.419682,121.084305 
	C42.615181,123.618172 44.906727,125.607079 40.970970,128.747849 
	C40.500912,129.122955 41.198940,130.916260 41.296371,132.057266 
	C41.520321,134.679916 41.411297,137.014435 37.444214,135.666870 
	C36.924545,135.578613 36.625778,135.583466 36.327015,135.588303 
	C36.557423,135.720200 36.787827,135.852112 37.018230,135.984024 
	C39.119701,140.037003 37.277340,141.462509 32.526058,141.178925 
	C35.108311,149.604691 37.530441,157.507980 39.873314,165.152664 
	C41.173367,161.914078 41.865829,158.530380 43.832302,156.240982 
	C44.471771,155.496506 49.449799,156.913696 50.617886,158.603851 
	C51.931976,160.505249 51.183079,163.832428 51.354504,166.956863 
	C51.625065,166.798172 52.573215,166.304581 53.453960,165.710999 
	C54.796505,164.806122 55.966896,163.398926 57.433224,162.974045 
	C60.899651,161.969604 64.339745,163.289398 65.092400,166.582520 
	C65.511154,168.414658 62.851971,170.950287 62.054680,172.340866 
	C63.766796,173.130707 68.240753,173.997360 68.522964,175.601471 
	C68.961769,178.095734 66.549828,181.091522 65.251038,184.094757 
	C65.656799,186.777802 66.191490,190.313278 66.888809,194.924164 
	C70.154594,196.940826 74.513008,199.632217 79.398514,202.559631 
	C80.014038,202.469269 80.102486,202.142883 80.190941,201.816513 
	C81.796585,199.248886 81.747009,193.987793 87.164078,197.552963 
	C87.405571,197.711884 88.150200,196.925522 88.705902,196.820999 
	C90.509575,196.481781 92.840263,195.467819 94.003235,196.215118 
	C95.081841,196.908188 94.921745,199.529007 95.394691,201.703934 
	C97.224525,201.429337 99.851616,196.617966 103.057350,200.640686 
	C103.787880,201.557373 103.401611,203.364059 103.572624,205.234222 
	C106.175484,206.167816 107.496254,207.949997 104.504471,211.028778 
	C104.018517,211.528870 103.840630,212.799500 104.108749,213.483231 
	C105.632530,217.368988 104.061218,219.077087 101.280937,219.197403 
	C100.568871,221.008820 100.009422,223.400986 99.574677,223.378525 
	C97.016373,223.246399 94.487137,222.551620 91.509758,221.959167 
	C83.478638,229.743683 82.430283,240.849152 82.036232,252.864685 
	C86.490211,248.485474 91.301201,244.595505 95.912697,251.691635 
	C96.611267,252.766571 94.426201,255.715500 93.722298,257.437195 
	C95.221985,258.346680 99.192757,259.474335 99.530350,261.280945 
	C99.960083,263.580536 97.448677,266.429749 96.339844,268.759186 
	C96.386765,271.842133 96.438217,275.223328 96.489685,278.604553 
	C93.881271,278.604553 91.272858,278.604553 89.271324,278.604553 
	C91.600449,287.447815 95.405128,296.199036 103.541527,302.222260 
	C103.631729,301.782227 103.721931,301.342224 103.812134,300.902191 
	C106.042320,300.902191 108.508575,300.346863 110.397469,301.149750 
	C111.267738,301.519684 111.008049,304.547882 111.287781,306.565948 
	C113.291153,305.782135 116.104233,301.446625 119.395233,305.655487 
	C120.038078,306.477631 119.326752,308.358673 119.225166,309.989807 
	C126.442642,309.040375 134.125458,308.029755 142.250946,306.960876 
	C140.995560,305.003967 139.647064,303.686127 139.231949,302.120819 
	C137.300323,294.836853 140.683640,292.184265 149.390289,294.726654 
	C150.293472,294.916138 150.572189,294.846924 150.850922,294.777710 
	C150.665100,294.420258 150.479279,294.062836 150.293457,293.705414 
	C149.919724,292.290039 148.763916,290.343903 149.303726,289.548431 
	C152.072266,285.468750 149.311066,282.716248 147.401413,279.782104 
	C142.980133,272.989014 138.452576,266.265076 134.386826,260.143524 
	C131.567261,262.965454 129.740540,265.023865 127.586624,266.648529 
	C127.327042,266.844299 125.296387,264.692047 123.990112,263.543213 
	C123.940483,263.567841 123.286354,264.194183 122.781288,264.090973 
	C120.495636,263.623962 115.068825,254.160370 115.630173,251.924377 
	C115.830009,251.128357 116.023560,250.237549 115.868095,249.460403 
	C114.724960,243.746033 115.764809,242.661041 120.850479,243.531525 
	C122.299805,240.786484 123.648659,238.231735 125.559196,234.613144 
	C127.498314,237.267410 128.508438,238.650070 129.184052,239.574860 
	C130.221024,238.155640 131.370407,236.582611 132.519775,235.009567 
	C134.298447,236.375702 136.077103,237.741837 138.618439,239.693771 
	C139.557419,239.829346 142.000198,239.894501 144.179260,240.685837 
	C144.771454,240.900909 144.568237,243.306229 144.794571,245.264236 
	C147.181595,246.163666 148.664093,247.860489 145.757797,251.060364 
	C145.177933,251.698792 145.818741,253.328568 145.604004,254.444916 
	C145.318527,255.928955 145.138428,258.259216 144.229172,258.655090 
	C140.177277,260.419128 140.929321,263.733246 142.170441,266.130676 
	C145.216766,272.015198 148.957642,277.540131 152.536255,283.401611 
	C160.195221,279.026093 159.472473,287.137146 162.055496,289.552643 
	C162.890060,286.554901 162.920776,281.697449 164.842331,280.773834 
	C167.117554,279.680176 171.023468,281.979095 174.992432,283.006927 
	C177.706451,277.776093 180.946945,271.530579 184.189331,265.281372 
	C178.258987,262.241272 173.495590,252.320740 175.155151,245.823456 
	C175.490799,244.509460 177.896454,243.724182 179.805771,243.555313 
	C181.495926,241.151321 183.079559,238.652069 185.025131,236.476501 
	C185.242828,236.233047 187.513702,237.825745 188.271973,238.251938 
	C189.797821,237.252457 191.879425,235.007797 192.901749,235.416016 
	C194.641296,236.110580 195.714401,238.474136 196.662186,239.638458 
	C199.008865,239.975311 201.460388,240.327209 203.911926,240.679108 
	C202.078598,244.439606 209.655106,247.239487 204.789459,251.789795 
	C203.306366,253.176758 205.281799,256.259064 208.302856,256.835144 
	C213.189102,257.766907 218.050522,258.828766 222.893799,259.829742 
	C225.553864,253.499466 226.314148,253.245850 234.298325,255.801224 
	C234.413559,253.368362 233.892609,250.614502 234.827835,248.506760 
	C235.754639,246.417969 238.823898,243.224197 239.772659,243.588684 
	C242.546432,244.654343 244.731323,247.252838 247.001434,249.130249 
	C246.994614,249.229385 246.863419,248.171173 247.171371,247.261642 
	C247.866745,245.207855 248.642014,241.621887 249.630630,241.537460 
	C251.997772,241.335266 254.931305,242.271286 256.795349,243.783997 
	C257.870209,244.656265 257.637177,247.586456 257.387421,249.511856 
	C257.163849,251.235443 256.110687,252.851410 255.932983,255.170715 
	C256.895660,254.155579 257.799683,253.075516 258.834778,252.140488 
	C260.397614,250.728683 262.206635,248.157471 263.634277,248.332779 
	C266.411407,248.673798 268.996460,250.579300 271.661072,251.836761 
	C270.587952,253.873962 269.514801,255.911148 268.717163,257.425385 
	C270.321167,258.339691 274.251892,259.319336 274.723724,261.177338 
	C275.278290,263.361206 272.830597,266.307434 271.549194,269.232819 
	C271.666229,271.639038 272.261871,275.055634 271.716187,278.279053 
	C271.561157,279.194977 268.082947,279.548431 265.815704,280.257721 
	C266.517212,282.477173 268.879333,285.615082 264.442078,287.500549 
	C259.727600,289.503845 255.998520,287.302887 251.450775,279.718506 
	C251.514511,285.902618 251.164886,292.033569 243.444565,292.397339 
	C241.687820,292.480072 239.822220,290.252411 237.588913,288.820251 
	C235.852905,291.674194 234.216141,295.927063 231.257263,298.834442 
	C227.544846,302.482269 231.916214,306.261505 230.511307,310.021576 
	C233.172974,311.167755 234.916367,313.004486 231.544632,316.219635 
	C231.118118,316.626343 231.378830,317.926758 231.557724,318.762512 
	C232.073334,321.171143 232.613586,323.492554 229.075989,323.958984 
	C228.682770,324.010864 228.156647,324.290314 227.986786,324.617249 
	C224.995346,330.374939 223.725327,330.469055 219.547104,325.203827 
	C219.476715,325.115112 219.227432,325.168335 218.584564,325.117920 
	C218.584564,326.079926 218.983673,327.459656 218.511673,327.895081 
	C216.931610,329.352692 214.314026,331.913879 213.402786,331.454681 
	C210.556168,330.020264 208.278549,327.429016 205.858704,325.201111 
	C205.431885,324.808167 205.553436,323.647919 205.132355,323.446259 
	C199.239197,320.623840 202.448563,315.207336 201.791183,311.043396 
	C201.247665,307.600555 204.216156,307.823242 207.108200,308.610352 
	C207.889191,308.950714 208.242416,309.145020 208.595657,309.339325 
	C208.398407,308.891907 208.201141,308.444519 208.003876,307.997101 
	C208.945465,305.543823 209.887054,303.090546 211.308121,299.387970 
	C213.476730,302.077942 214.448288,303.283112 215.020447,303.992798 
	C216.397568,302.700653 217.759933,300.359131 219.262665,300.265259 
	C221.434799,300.129608 223.836411,301.534149 222.321564,305.375122 
	C222.166977,306.231598 222.227829,306.489532 222.288681,306.747467 
	C222.598343,306.571594 222.908005,306.395721 223.217651,306.219849 
M175.882797,68.078087 
	C175.311752,68.137970 174.740723,68.197853 173.035156,68.376701 
	C174.699829,68.860085 175.263428,69.023743 176.222290,69.921051 
	C176.850632,69.973915 177.478958,70.026787 178.107300,70.079666 
	C177.557495,69.483978 177.007706,68.888298 175.882797,68.078087 
M264.179413,278.942078 
	C264.848450,278.968109 265.517487,278.994141 266.186523,279.020172 
	C265.634399,278.484070 265.082275,277.947998 263.990753,277.071716 
	C263.399597,277.102173 262.808411,277.132660 261.009857,277.225403 
	C262.684875,277.839844 263.230286,278.039917 264.179413,278.942078 
M58.998817,193.038925 
	C58.718784,193.097687 58.438751,193.156448 58.158718,193.215195 
	C58.379417,193.535019 58.600117,193.854858 59.048889,194.856766 
	C59.492409,196.799683 60.921967,199.679565 60.162224,200.479126 
	C58.821327,201.890274 55.894905,202.964584 54.090630,202.478439 
	C51.671505,201.826691 49.338024,199.859512 47.631817,197.883667 
	C46.332066,196.378510 46.065823,193.980881 45.339783,191.980286 
	C44.681770,193.026337 44.846657,193.839218 44.938923,194.660248 
	C45.861683,202.871628 45.392838,203.673630 37.917355,207.204590 
	C37.233456,207.527618 36.359161,208.081085 36.166176,208.709595 
	C34.643879,213.667389 33.265778,218.669464 32.086960,222.803421 
	C35.407547,223.801682 37.986069,224.576843 40.564598,225.352020 
	C39.816223,226.868835 39.067848,228.385635 38.433571,229.671204 
	C43.606464,229.856247 43.208191,229.710190 41.061638,235.563583 
	C40.227798,237.837372 40.650646,242.075928 42.222050,243.446991 
	C47.015091,247.628983 52.645603,250.851135 58.364540,254.727692 
	C58.565224,253.492538 58.735367,253.064713 58.684319,252.665115 
	C58.075424,247.898621 60.864620,244.773590 64.668007,243.473846 
	C68.689064,242.099747 68.826569,246.622574 70.328217,248.912430 
	C70.708366,249.492096 71.142220,250.036545 71.869659,251.033264 
	C72.078499,240.550140 72.299713,240.300110 79.981445,241.861069 
	C81.536934,235.804626 83.095863,229.734802 84.811020,223.056671 
	C82.765839,223.643463 81.457573,224.250214 81.298927,224.029755 
	C78.785751,220.537033 75.615242,217.211273 74.279922,213.275681 
	C73.246033,210.228500 74.550385,206.387970 74.828468,202.726654 
	C69.687309,199.587509 64.594826,196.478073 58.998817,193.038925 
M141.400208,245.468704 
	C141.786148,245.543289 142.172089,245.617859 142.558029,245.692444 
	C142.320190,245.517044 142.082367,245.341629 141.400208,245.468704 
M238.896744,114.934242 
	C238.999146,115.319557 239.101562,115.704865 239.203979,116.090172 
	C239.267380,115.501854 239.330765,114.913544 238.896744,114.934242 
M227.408997,310.463043 
	C227.790146,310.535858 228.171295,310.608704 228.552460,310.681519 
	C228.318192,310.510345 228.083923,310.339142 227.408997,310.463043 
M81.004852,253.480133 
	C81.302147,253.511765 81.599434,253.543396 81.896721,253.575027 
	C81.764320,253.382004 81.631912,253.188980 81.004852,253.480133 
M136.524933,240.989456 
	C136.452927,241.209854 136.380905,241.430267 136.308899,241.650681 
	C136.534348,241.574188 136.759796,241.497696 136.524933,240.989456 
M64.925232,114.561218 
	C64.697937,114.485474 64.470642,114.409729 64.243355,114.333984 
	C64.317757,114.557404 64.392151,114.780823 64.925232,114.561218 
M222.991577,38.443768 
	C222.771484,38.365059 222.551407,38.286354 222.331314,38.207645 
	C222.399506,38.427689 222.467697,38.647732 222.991577,38.443768 
z"/>
<path fill="#FCFDFD" opacity="1.000000" stroke="none" 
	d="
M59.502335,193.368637 
	C64.594826,196.478073 69.687309,199.587509 74.828468,202.726654 
	C74.550385,206.387970 73.246033,210.228500 74.279922,213.275681 
	C75.615242,217.211273 78.785751,220.537033 81.298927,224.029755 
	C81.457573,224.250214 82.765839,223.643463 84.811020,223.056671 
	C83.095863,229.734802 81.536934,235.804626 79.981445,241.861069 
	C72.299713,240.300110 72.078499,240.550140 71.869659,251.033264 
	C71.142220,250.036545 70.708366,249.492096 70.328217,248.912430 
	C68.826569,246.622574 68.689064,242.099747 64.668007,243.473846 
	C60.864620,244.773590 58.075424,247.898621 58.684319,252.665115 
	C58.735367,253.064713 58.565224,253.492538 58.364540,254.727692 
	C52.645603,250.851135 47.015091,247.628983 42.222050,243.446991 
	C40.650646,242.075928 40.227798,237.837372 41.061638,235.563583 
	C43.208191,229.710190 43.606464,229.856247 38.433571,229.671204 
	C39.067848,228.385635 39.816223,226.868835 40.564598,225.352020 
	C37.986069,224.576843 35.407547,223.801682 32.086960,222.803421 
	C33.265778,218.669464 34.643879,213.667389 36.166176,208.709595 
	C36.359161,208.081085 37.233456,207.527618 37.917355,207.204590 
	C45.392838,203.673630 45.861683,202.871628 44.938923,194.660248 
	C44.846657,193.839218 44.681770,193.026337 45.339783,191.980286 
	C46.065823,193.980881 46.332066,196.378510 47.631817,197.883667 
	C49.338024,199.859512 51.671505,201.826691 54.090630,202.478439 
	C55.894905,202.964584 58.821327,201.890274 60.162224,200.479126 
	C60.921967,199.679565 59.492409,196.799683 59.114426,194.321991 
	C59.287426,193.647690 59.394882,193.508163 59.502335,193.368637 
z"/>
<path fill="#FEFEFE" opacity="1.000000" stroke="none" 
	d="
M141.622375,245.317459 
	C142.082367,245.341629 142.320190,245.517044 142.558029,245.692444 
	C142.172089,245.617859 141.786148,245.543289 141.622375,245.317459 
z"/>
<path fill="#FEFEFE" opacity="1.000000" stroke="none" 
	d="
M263.775696,278.239990 
	C263.230286,278.039917 262.684875,277.839844 261.009857,277.225403 
	C262.808411,277.132660 263.399597,277.102173 264.070618,277.447693 
	C264.025543,277.962463 263.900604,278.101196 263.775696,278.239990 
z"/>
<path fill="#FEFEFE" opacity="1.000000" stroke="none" 
	d="
M264.340332,277.617798 
	C265.082275,277.947998 265.634399,278.484070 266.186523,279.020172 
	C265.517487,278.994141 264.848450,278.968109 263.977539,278.591003 
	C263.900604,278.101196 264.025543,277.962463 264.340332,277.617798 
z"/>
<path fill="#FEFEFE" opacity="1.000000" stroke="none" 
	d="
M142.040207,119.916672 
	C141.711212,119.985901 141.365799,120.169739 141.028915,120.155243 
	C140.892487,120.149368 140.774689,119.710869 140.648407,119.469254 
	C141.026550,119.465370 141.404678,119.461494 141.885605,119.736343 
	C141.988388,120.015060 142.027206,119.951546 142.040207,119.916672 
z"/>
<path fill="#FEFEFE" opacity="1.000000" stroke="none" 
	d="
M63.820709,285.846954 
	C63.855480,285.144562 64.133453,284.652649 64.876099,283.338348 
	C64.876099,284.824707 64.876099,285.385895 64.719131,286.205688 
	C64.396080,286.328644 64.229996,286.193024 63.820709,285.846954 
z"/>
<path fill="#FEFEFE" opacity="1.000000" stroke="none" 
	d="
M239.145447,114.629730 
	C239.330765,114.913544 239.267380,115.501854 239.203979,116.090172 
	C239.101562,115.704865 238.999146,115.319557 239.145447,114.629730 
z"/>
<path fill="#FEFEFE" opacity="1.000000" stroke="none" 
	d="
M89.513123,108.398117 
	C88.823509,108.293243 88.411736,107.964012 88.069397,107.245056 
	C88.138824,106.855339 88.381729,106.595337 88.381729,106.595337 
	C88.911850,106.802124 89.441971,107.008904 90.139442,107.447708 
	C90.134857,107.844391 89.962921,108.009071 89.513123,108.398117 
z"/>
<path fill="#FEFEFE" opacity="1.000000" stroke="none" 
	d="
M88.016655,106.984673 
	C87.321404,106.982994 86.748322,106.851982 86.175247,106.720970 
	C86.191200,106.542084 86.207161,106.363197 86.223122,106.184311 
	C86.786194,106.184311 87.349274,106.184311 88.147034,106.389824 
	C88.381729,106.595337 88.138824,106.855339 88.016655,106.984673 
z"/>
<path fill="#FEFEFE" opacity="1.000000" stroke="none" 
	d="
M176.457916,68.292618 
	C177.007706,68.888298 177.557495,69.483978 178.107300,70.079666 
	C177.478958,70.026787 176.850632,69.973915 176.196732,69.340637 
	C176.266754,68.604355 176.362335,68.448486 176.457916,68.292618 
z"/>
<path fill="#FEFEFE" opacity="1.000000" stroke="none" 
	d="
M175.999115,68.973816 
	C175.263428,69.023743 174.699829,68.860085 173.035156,68.376701 
	C174.740723,68.197853 175.311752,68.137970 176.170349,68.185349 
	C176.362335,68.448486 176.266754,68.604355 175.999115,68.973816 
z"/>
<path fill="#FEFEFE" opacity="1.000000" stroke="none" 
	d="
M207.860657,308.068024 
	C208.201141,308.444519 208.398407,308.891907 208.595657,309.339325 
	C208.242416,309.145020 207.889191,308.950714 207.478821,308.508362 
	C207.421677,308.260315 207.717407,308.138947 207.860657,308.068024 
z"/>
<path fill="#FEFEFE" opacity="1.000000" stroke="none" 
	d="
M227.629318,310.315491 
	C228.083923,310.339142 228.318192,310.510345 228.552460,310.681519 
	C228.171295,310.608704 227.790146,310.535858 227.629318,310.315491 
z"/>
<path fill="#FEFEFE" opacity="1.000000" stroke="none" 
	d="
M150.084015,293.938660 
	C150.479279,294.062836 150.665100,294.420258 150.850922,294.777710 
	C150.572189,294.846924 150.293472,294.916138 149.757721,294.830261 
	C149.625305,294.507416 149.749939,294.339661 150.084015,293.938660 
z"/>
<path fill="#FEFEFE" opacity="1.000000" stroke="none" 
	d="
M223.017868,306.032104 
	C222.908005,306.395721 222.598343,306.571594 222.288681,306.747467 
	C222.227829,306.489532 222.166977,306.231598 222.247437,305.738434 
	C222.531860,305.616913 222.674957,305.730621 223.017868,306.032104 
z"/>
<path fill="#FEFEFE" opacity="1.000000" stroke="none" 
	d="
M97.007736,307.993896 
	C97.167389,308.166901 97.355202,308.320801 97.543007,308.474670 
	C97.281357,308.430206 97.019707,308.385742 96.926811,308.141663 
	C97.095573,307.942078 97.035889,307.974792 97.007736,307.993896 
z"/>
<path fill="#FEFEFE" opacity="1.000000" stroke="none" 
	d="
M81.252182,253.238037 
	C81.631912,253.188980 81.764320,253.382004 81.896729,253.575027 
	C81.599434,253.543396 81.302147,253.511765 81.252182,253.238037 
z"/>
<path fill="#FEFEFE" opacity="1.000000" stroke="none" 
	d="
M80.448715,144.673401 
	C80.463371,144.876572 80.251564,145.234970 79.926880,145.394577 
	C79.950073,145.073410 80.086166,144.951004 80.448715,144.673401 
z"/>
<path fill="#FEFEFE" opacity="1.000000" stroke="none" 
	d="
M136.755081,241.205322 
	C136.759796,241.497696 136.534348,241.574188 136.308899,241.650665 
	C136.380905,241.430267 136.452927,241.209854 136.755081,241.205322 
z"/>
<path fill="#FEFEFE" opacity="1.000000" stroke="none" 
	d="
M80.009865,202.005493 
	C80.102486,202.142883 80.014038,202.469269 79.714363,202.699951 
	C79.611687,202.467651 79.720238,202.331055 80.009865,202.005493 
z"/>
<path fill="#FCFDFD" opacity="1.000000" stroke="none" 
	d="
M59.000393,193.980957 
	C58.600117,193.854858 58.379417,193.535019 58.158722,193.215210 
	C58.438751,193.156448 58.718784,193.097687 59.250576,193.203781 
	C59.394882,193.508163 59.287426,193.647690 59.000393,193.980957 
z"/>
<path fill="#FEFEFE" opacity="1.000000" stroke="none" 
	d="
M36.992947,136.004364 
	C36.787827,135.852112 36.557423,135.720200 36.327015,135.588303 
	C36.625778,135.583466 36.924545,135.578613 37.068443,135.817169 
	C36.913574,136.060577 36.967663,136.024719 36.992947,136.004364 
z"/>
<path fill="#FEFEFE" opacity="1.000000" stroke="none" 
	d="
M82.044708,116.925316 
	C81.827911,116.937340 81.595612,116.981171 81.363319,117.025009 
	C81.502213,116.897247 81.641113,116.769485 81.885773,116.829384 
	C81.991539,117.017044 82.029213,116.957130 82.044708,116.925316 
z"/>
<path fill="#FEFEFE" opacity="1.000000" stroke="none" 
	d="
M64.695892,114.782730 
	C64.392151,114.780823 64.317757,114.557404 64.243355,114.333984 
	C64.470642,114.409729 64.697937,114.485474 64.695892,114.782730 
z"/>
<path fill="#FEFEFE" opacity="1.000000" stroke="none" 
	d="
M196.017731,103.016846 
	C195.876633,103.343613 195.612656,103.543015 195.348679,103.742416 
	C195.312225,103.488365 195.275772,103.234299 195.444931,102.806801 
	C195.650543,102.633362 195.894852,102.889488 196.017731,103.016846 
z"/>
<path fill="#FEFEFE" opacity="1.000000" stroke="none" 
	d="
M97.935760,103.061317 
	C97.885925,102.914619 97.973030,102.634148 98.203262,102.506744 
	C98.346390,102.659813 98.072701,102.927544 97.935760,103.061317 
z"/>
<path fill="#FEFEFE" opacity="1.000000" stroke="none" 
	d="
M257.040222,83.071732 
	C256.940643,83.463837 256.603882,83.650993 256.267090,83.838150 
	C256.186371,83.568222 256.105682,83.298286 256.155090,82.770767 
	C256.457764,82.631042 256.630371,82.748909 257.040222,83.071732 
z"/>
<path fill="#FEFEFE" opacity="1.000000" stroke="none" 
	d="
M207.906433,40.066570 
	C208.182617,40.228703 208.359070,40.462563 208.535522,40.696419 
	C208.290253,40.702267 208.044968,40.708122 207.699707,40.492363 
	C207.599716,40.270756 207.806686,40.138294 207.906433,40.066570 
z"/>
<path fill="#FEFEFE" opacity="1.000000" stroke="none" 
	d="
M93.996613,40.004791 
	C94.335831,40.138958 94.528008,40.415821 94.720184,40.692680 
	C94.466736,40.729591 94.213280,40.766506 93.760483,40.620983 
	C93.561127,40.438545 93.849579,40.147484 93.996613,40.004791 
z"/>
<path fill="#FEFEFE" opacity="1.000000" stroke="none" 
	d="
M222.763733,38.655769 
	C222.467697,38.647732 222.399506,38.427689 222.331314,38.207645 
	C222.551407,38.286354 222.771484,38.365059 222.763733,38.655769 
z"/>
</svg>